<svg width="1440" height="900" viewBox="0 0 1440 900" fill="none" xmlns="http://www.w3.org/2000/svg">
<g clip-path="url(#clip0)">
<rect width="1440" height="900" fill="url(#paint0_linear)"/>
<path d="M243.509 84.2H294.309C299.643 84.2 304.043 86.3333 307.509 90.6L389.509 197.4L471.509 90.6C474.976 86.3333 479.376 84.2 484.709 84.2H535.509C537.109 84.2 538.176 84.8667 538.709 86.2C539.509 87.5333 539.376 88.7333 538.309 89.8L415.109 250.6V359.4C415.109 360.733 414.576 361.933 413.509 363C412.709 363.8 411.643 364.2 410.309 364.2H369.109C365.643 364.2 363.909 362.6 363.909 359.4V250.6L240.709 89.8C239.643 88.7333 239.509 87.5333 240.309 86.2C241.109 84.8667 242.176 84.2 243.509 84.2ZM544.616 359.4L750.216 91.4C753.682 87.1333 758.082 85 763.416 85H801.416C804.616 85 806.216 86.6 806.216 89.8V360.2C806.216 363.4 804.616 365 801.416 365H763.416C758.082 365 753.682 362.867 750.216 358.6L681.016 268.2L611.416 358.6C607.949 362.867 603.549 365 598.216 365H547.416C546.082 365 545.016 364.467 544.216 363.4C543.416 362.067 543.549 360.733 544.616 359.4ZM714.216 225L755.416 278.6V171.4L714.216 225ZM836.766 336.2L868.366 309.8C870.766 307.933 872.899 307.933 874.766 309.8C882.766 317.8 892.766 321.4 904.766 320.6C914.632 319.533 922.766 315.267 929.166 307.8C935.566 300.333 938.766 291.667 938.766 281.8V89.8C938.766 88.4667 939.166 87.4 939.966 86.6C941.032 85.5333 942.232 85 943.566 85H984.766C987.966 85 989.566 86.6 989.566 89.8V280.6C989.566 292.867 987.299 304.467 982.766 315.4C978.499 326.333 972.366 335.933 964.366 344.2C956.632 352.2 947.432 358.733 936.766 363.8C926.366 368.6 915.166 371.133 903.166 371.4C889.832 371.933 877.432 369.667 865.966 364.6C854.766 359.267 844.899 352.2 836.366 343.4C834.232 341 834.366 338.6 836.766 336.2ZM156.2 524.2H197.4C198.733 524.2 199.8 524.733 200.6 525.8C201.667 526.6 202.2 527.667 202.2 529V702.2C202.2 709.4 203.4 716.333 205.8 723C208.467 729.4 211.933 735.267 216.2 740.6C220.733 745.667 226.067 749.8 232.2 753C238.333 756.2 245 758.2 252.2 759C260.467 759.8 268.2 758.867 275.4 756.2C282.867 753.533 289.267 749.667 294.6 744.6C300.2 739.533 304.6 733.533 307.8 726.6C311 719.4 312.6 711.8 312.6 703.8V529C312.6 527.667 313.133 526.6 314.2 525.8C315.267 524.733 316.467 524.2 317.8 524.2H358.6C359.933 524.2 361 524.733 361.8 525.8C362.867 526.6 363.4 527.667 363.4 529V703.8C363.4 718.2 360.6 731.8 355 744.6C349.667 757.4 342.333 768.6 333 778.2C323.667 787.8 312.6 795.533 299.8 801.4C287.267 807 273.8 809.933 259.4 810.2C244.467 810.467 230.467 807.8 217.4 802.2C204.333 796.333 192.867 788.467 183 778.6C173.133 768.467 165.4 756.867 159.8 743.8C154.2 730.467 151.4 716.333 151.4 701.4V529C151.4 527.667 151.8 526.6 152.6 525.8C153.667 524.733 154.867 524.2 156.2 524.2ZM420.997 529C420.997 527.667 421.397 526.6 422.197 525.8C423.264 524.733 424.464 524.2 425.797 524.2H636.997C638.33 524.2 639.397 524.733 640.197 525.8C641.264 526.6 641.797 527.667 641.797 529V587.8C641.797 591.533 640.597 594.867 638.197 597.8L574.997 680.6L665.397 798.6C666.197 799.933 666.197 801.267 665.397 802.6C664.864 803.667 663.93 804.2 662.597 804.2H611.797C606.464 804.2 602.064 802.067 598.597 797.8L510.997 683.8C509.13 681.667 509.13 679.667 510.997 677.8L589.797 575H472.197V799.4C472.197 802.6 470.464 804.2 466.997 804.2H425.797C424.464 804.2 423.264 803.8 422.197 803C421.397 801.933 420.997 800.733 420.997 799.4V529ZM675.541 524.2H726.341C731.674 524.2 736.074 526.333 739.541 530.6L883.541 717.8V529C883.541 527.667 883.941 526.6 884.741 525.8C885.807 524.733 887.007 524.2 888.341 524.2H929.541C930.874 524.2 931.941 524.733 932.741 525.8C933.807 526.6 934.341 527.667 934.341 529V799.4C934.341 802.6 932.741 804.2 929.541 804.2H891.541C886.207 804.2 881.807 802.067 878.341 797.8L672.741 529.8C671.674 528.733 671.541 527.533 672.341 526.2C673.141 524.867 674.207 524.2 675.541 524.2ZM966.491 799.4L1172.09 531.4C1175.56 527.133 1179.96 525 1185.29 525H1223.29C1226.49 525 1228.09 526.6 1228.09 529.8V800.2C1228.09 803.4 1226.49 805 1223.29 805H1185.29C1179.96 805 1175.56 802.867 1172.09 798.6L1102.89 708.2L1033.29 798.6C1029.82 802.867 1025.42 805 1020.09 805H969.291C967.957 805 966.891 804.467 966.091 803.4C965.291 802.067 965.424 800.733 966.491 799.4ZM1136.09 665L1177.29 718.6V611.4L1136.09 665Z" fill="white" fill-opacity="0.08"/>
</g>
<defs>
<linearGradient id="paint0_linear" x1="720" y1="0" x2="720" y2="900" gradientUnits="userSpaceOnUse">
<stop stop-color="#1C1C1C"/>
<stop offset="1"/>
</linearGradient>
<clipPath id="clip0">
<rect width="1440" height="900" fill="white"/>
</clipPath>
</defs>
</svg>
