<svg width="30" height="30" viewBox="0 0 30 30" fill="none" xmlns="http://www.w3.org/2000/svg">
<path d="M21.0055 10.3444C21.7511 10.3444 22.3555 9.73999 22.3555 8.99441C22.3555 8.24882 21.7511 7.64441 21.0055 7.64441C20.2599 7.64441 19.6555 8.24882 19.6555 8.99441C19.6555 9.73999 20.2599 10.3444 21.0055 10.3444Z" fill="#434141"/>
<path d="M15 9.22314C13.8575 9.22314 12.7406 9.56195 11.7906 10.1967C10.8406 10.8315 10.1001 11.7337 9.66289 12.7893C9.22565 13.8449 9.11125 15.0064 9.33415 16.127C9.55705 17.2476 10.1072 18.277 10.9152 19.0849C11.7231 19.8928 12.7524 20.443 13.873 20.6659C14.9936 20.8888 16.1552 20.7744 17.2107 20.3372C18.2663 19.8999 19.1685 19.1595 19.8033 18.2095C20.4381 17.2595 20.7769 16.1426 20.7769 15C20.7769 13.4679 20.1683 11.9985 19.0849 10.9152C18.0015 9.83178 16.5321 9.22314 15 9.22314ZM15 18.75C14.2583 18.75 13.5333 18.5301 12.9166 18.118C12.2999 17.706 11.8193 17.1203 11.5355 16.4351C11.2516 15.7499 11.1774 14.9959 11.3221 14.2684C11.4668 13.541 11.8239 12.8728 12.3484 12.3484C12.8728 11.8239 13.541 11.4668 14.2684 11.3221C14.9959 11.1774 15.7499 11.2516 16.4351 11.5355C17.1203 11.8193 17.706 12.2999 18.118 12.9166C18.5301 13.5333 18.75 14.2583 18.75 15C18.75 15.9946 18.3549 16.9484 17.6517 17.6517C16.9484 18.3549 15.9946 18.75 15 18.75Z" fill="#434141"/>
<path d="M15 5.77688C18.0037 5.77688 18.36 5.78812 19.5459 5.8425C20.2592 5.85097 20.9658 5.98194 21.6347 6.22969C22.12 6.4169 22.5607 6.70364 22.9286 7.07145C23.2964 7.43926 23.5831 7.88 23.7703 8.36531C24.0181 9.03425 24.149 9.74077 24.1575 10.4541C24.2119 11.64 24.2231 11.9962 24.2231 15.0009C24.2231 18.0056 24.2119 18.36 24.1575 19.5459C24.149 20.2592 24.0181 20.9658 23.7703 21.6347C23.5831 22.12 23.2964 22.5607 22.9286 22.9286C22.5607 23.2964 22.12 23.5831 21.6347 23.7703C20.9658 24.0181 20.2592 24.149 19.5459 24.1575C18.36 24.2119 18.0037 24.2231 15 24.2231C11.9963 24.2231 11.64 24.2119 10.4541 24.1575C9.74077 24.149 9.03425 24.0181 8.36531 23.7703C7.88 23.5831 7.43926 23.2964 7.07145 22.9286C6.70364 22.5607 6.4169 22.12 6.22969 21.6347C5.98194 20.9658 5.85097 20.2592 5.8425 19.5459C5.78812 18.36 5.77688 18.0037 5.77688 15C5.77688 11.9963 5.78812 11.64 5.8425 10.4541C5.85097 9.74077 5.98194 9.03425 6.22969 8.36531C6.4169 7.88 6.70364 7.43926 7.07145 7.07145C7.43926 6.70364 7.88 6.4169 8.36531 6.22969C9.03425 5.98194 9.74077 5.85097 10.4541 5.8425C11.64 5.78812 11.9963 5.77688 15 5.77688V5.77688ZM15 3.75C11.9447 3.75 11.5613 3.76313 10.3613 3.8175C9.42823 3.83634 8.50515 4.01322 7.63125 4.34063C6.8838 4.62965 6.20499 5.07167 5.63833 5.63833C5.07167 6.20499 4.62965 6.8838 4.34063 7.63125C4.01312 8.50544 3.83623 9.42885 3.8175 10.3622C3.76313 11.5622 3.75 11.9438 3.75 15C3.75 18.0562 3.76313 18.4387 3.8175 19.6387C3.83634 20.5718 4.01322 21.4949 4.34063 22.3688C4.62965 23.1162 5.07167 23.795 5.63833 24.3617C6.20499 24.9283 6.8838 25.3703 7.63125 25.6594C8.50544 25.9869 9.42885 26.1638 10.3622 26.1825C11.5622 26.2369 11.9447 26.25 15 26.25C18.0553 26.25 18.4387 26.2369 19.6387 26.1825C20.5721 26.1638 21.4955 25.9869 22.3697 25.6594C23.1171 25.3703 23.7959 24.9283 24.3626 24.3617C24.9293 23.795 25.3713 23.1162 25.6603 22.3688C25.9875 21.4945 26.1641 20.5711 26.1825 19.6378C26.2369 18.4378 26.25 18.0562 26.25 15C26.25 11.9438 26.2369 11.5613 26.1825 10.3613C26.1637 9.42823 25.9868 8.50515 25.6594 7.63125C25.3703 6.8838 24.9283 6.20499 24.3617 5.63833C23.795 5.07167 23.1162 4.62965 22.3688 4.34063C21.4945 4.01344 20.5711 3.83687 19.6378 3.81844C18.4378 3.76219 18.0562 3.75 15 3.75Z" fill="#434141"/>
</svg>
