<svg width="240" height="52" viewBox="0 0 240 52" fill="none" xmlns="http://www.w3.org/2000/svg">
<path d="M41.69 0.974998C41.69 1.14833 41.3433 1.77666 40.65 2.86C40 3.9 39.155 5.2 38.115 6.76C37.075 8.32 35.9483 10.01 34.735 11.83C33.5217 13.6067 32.3517 15.3183 31.225 16.965C30.0983 18.5683 29.1017 19.9767 28.235 21.19C27.4117 22.36 26.87 23.1183 26.61 23.465C26.4367 23.7683 26.155 23.92 25.765 23.92C25.375 23.92 25.05 23.7467 24.79 23.4L9.19 1.69C9.06 1.56 8.995 1.38666 8.995 1.17C8.995 0.866664 9.10333 0.628331 9.32 0.454997C9.58 0.238331 9.84 0.129998 10.1 0.129998C10.36 0.129998 10.5983 0.259997 10.815 0.519996L25.7 21.19L39.805 0.454997C39.9783 0.151665 40.26 -7.7486e-07 40.65 -7.7486e-07C40.91 -7.7486e-07 41.1483 0.108332 41.365 0.324999C41.5817 0.498333 41.69 0.714999 41.69 0.974998ZM26.48 51.025C26.48 51.285 26.3717 51.5233 26.155 51.74C25.9817 51.9133 25.765 52 25.505 52C25.245 52 25.0067 51.9133 24.79 51.74C24.6167 51.5233 24.53 51.285 24.53 51.025V33.735C24.1833 33.2583 23.36 32.1533 22.06 30.42C20.76 28.6433 19.2217 26.5633 17.445 24.18C15.7117 21.7967 13.87 19.2833 11.92 16.64C10.0133 13.9533 8.23667 11.4833 6.59 9.23C4.94333 6.93333 3.57833 5.02666 2.495 3.51C1.455 1.95 0.935 1.08333 0.935 0.909999C0.935 0.649997 1.04333 0.43333 1.26 0.259996C1.52 0.0866648 1.78 -7.7486e-07 2.04 -7.7486e-07C2.34333 -7.7486e-07 2.60333 0.129999 2.82 0.389998L26.285 32.825C26.415 33.0417 26.48 33.2367 26.48 33.41V51.025ZM79.4301 51.025C79.4301 51.285 79.3218 51.5233 79.1051 51.74C78.9318 51.9133 78.7151 52 78.4551 52C77.9351 52 77.6101 51.7833 77.4801 51.35L58.5651 3.64L56.4201 9.165C56.5935 9.51166 56.9618 10.3783 57.5251 11.765C58.0885 13.1517 58.7818 14.8633 59.6051 16.9C60.4285 18.8933 61.3168 21.125 62.2701 23.595C63.2235 26.0217 64.1985 28.4917 65.1951 31.005C66.1918 33.5183 67.1451 35.9667 68.0551 38.35C69.0085 40.7333 69.8318 42.8567 70.5251 44.72C71.2618 46.5833 71.8468 48.1 72.2801 49.27C72.7135 50.3967 72.9301 50.9817 72.9301 51.025C72.9301 51.5017 72.7135 51.805 72.2801 51.935C72.1935 51.935 72.1285 51.9567 72.0851 52C72.0418 52 71.9768 52 71.8901 52C71.4568 52 71.1535 51.7833 70.9801 51.35L55.3801 11.96L40.2351 51.35C40.0618 51.7833 39.7368 52 39.2601 52C39.1735 52 39.1085 52 39.0651 52C39.0651 51.9567 39.0218 51.935 38.9351 51.935C38.5018 51.805 38.2851 51.48 38.2851 50.96C38.2851 50.9167 38.5451 50.2017 39.0651 48.815C39.5851 47.4283 40.2568 45.63 41.0801 43.42C41.9468 41.21 42.9218 38.675 44.0051 35.815C45.1318 32.955 46.2585 30.03 47.3851 27.04C48.5551 24.0067 49.7035 21.0167 50.8301 18.07C52.0001 15.1233 53.0401 12.4367 53.9501 10.01C54.9035 7.54 55.7051 5.48167 56.3551 3.835C57.0051 2.145 57.4168 1.06167 57.5901 0.584999C57.7635 0.194999 58.0885 -7.7486e-07 58.5651 -7.7486e-07C59.0418 -7.7486e-07 59.3451 0.194999 59.4751 0.584999C59.6485 1.06167 60.0601 2.145 60.7101 3.835C61.4035 5.48167 62.2268 7.54 63.1801 10.01C64.1335 12.4367 65.1951 15.1233 66.3651 18.07C67.5785 21.0167 68.7701 24.0067 69.9401 27.04C71.1535 30.03 72.3235 32.955 73.4501 35.815C74.6201 38.675 75.6385 41.2317 76.5051 43.485C77.3718 45.695 78.0651 47.4933 78.5851 48.88C79.1485 50.2667 79.4301 50.9817 79.4301 51.025ZM108.416 0.974998C108.416 1.235 108.307 1.47333 108.091 1.69C107.917 1.86333 107.701 1.95 107.441 1.95H75.4605C75.2005 1.95 74.9622 1.86333 74.7455 1.69C74.5722 1.47333 74.4855 1.235 74.4855 0.974998C74.4855 0.714999 74.5722 0.498333 74.7455 0.324999C74.9622 0.108332 75.2005 -7.7486e-07 75.4605 -7.7486e-07H107.441C107.701 -7.7486e-07 107.917 0.108332 108.091 0.324999C108.307 0.498333 108.416 0.714999 108.416 0.974998ZM108.741 7.28C108.741 7.54 108.632 7.77833 108.416 7.995C108.242 8.21166 108.026 8.32 107.766 8.32H92.6855V51.025C92.6855 51.285 92.5772 51.5233 92.3605 51.74C92.1439 51.9133 91.9055 52 91.6455 52C91.3855 52 91.1472 51.9133 90.9305 51.74C90.7139 51.5667 90.6055 51.3283 90.6055 51.025V8.32H75.4605C75.2005 8.32 74.9622 8.21166 74.7455 7.995C74.5722 7.77833 74.4855 7.54 74.4855 7.28C74.4855 7.02 74.5722 6.78167 74.7455 6.565C74.9189 6.305 75.1572 6.175 75.4605 6.175H107.766C108.069 6.175 108.307 6.305 108.481 6.565C108.654 6.78167 108.741 7.02 108.741 7.28ZM145.065 51.025C145.065 51.285 144.957 51.5233 144.74 51.74C144.567 51.9133 144.35 52 144.09 52C143.57 52 143.245 51.7833 143.115 51.35L124.2 3.64L122.055 9.165C122.228 9.51166 122.597 10.3783 123.16 11.765C123.723 13.1517 124.417 14.8633 125.24 16.9C126.063 18.8933 126.952 21.125 127.905 23.595C128.858 26.0217 129.833 28.4917 130.83 31.005C131.827 33.5183 132.78 35.9667 133.69 38.35C134.643 40.7333 135.467 42.8567 136.16 44.72C136.897 46.5833 137.482 48.1 137.915 49.27C138.348 50.3967 138.565 50.9817 138.565 51.025C138.565 51.5017 138.348 51.805 137.915 51.935C137.828 51.935 137.763 51.9567 137.72 52C137.677 52 137.612 52 137.525 52C137.092 52 136.788 51.7833 136.615 51.35L121.015 11.96L105.87 51.35C105.697 51.7833 105.372 52 104.895 52C104.808 52 104.743 52 104.7 52C104.7 51.9567 104.657 51.935 104.57 51.935C104.137 51.805 103.92 51.48 103.92 50.96C103.92 50.9167 104.18 50.2017 104.7 48.815C105.22 47.4283 105.892 45.63 106.715 43.42C107.582 41.21 108.557 38.675 109.64 35.815C110.767 32.955 111.893 30.03 113.02 27.04C114.19 24.0067 115.338 21.0167 116.465 18.07C117.635 15.1233 118.675 12.4367 119.585 10.01C120.538 7.54 121.34 5.48167 121.99 3.835C122.64 2.145 123.052 1.06167 123.225 0.584999C123.398 0.194999 123.723 -7.7486e-07 124.2 -7.7486e-07C124.677 -7.7486e-07 124.98 0.194999 125.11 0.584999C125.283 1.06167 125.695 2.145 126.345 3.835C127.038 5.48167 127.862 7.54 128.815 10.01C129.768 12.4367 130.83 15.1233 132 18.07C133.213 21.0167 134.405 24.0067 135.575 27.04C136.788 30.03 137.958 32.955 139.085 35.815C140.255 38.675 141.273 41.2317 142.14 43.485C143.007 45.695 143.7 47.4933 144.22 48.88C144.783 50.2667 145.065 50.9817 145.065 51.025ZM188.116 11.57C188.116 13.0867 187.856 14.5383 187.336 15.925C186.816 17.2683 186.101 18.46 185.191 19.5C184.281 20.54 183.176 21.4067 181.876 22.1C180.62 22.7933 179.233 23.2483 177.716 23.465C177.5 23.5083 177.261 23.53 177.001 23.53C176.785 23.53 176.568 23.53 176.351 23.53H165.041L164.976 27.885H176.871C177.261 27.885 177.565 28.08 177.781 28.47C177.911 28.8167 178.258 29.5967 178.821 30.81C179.385 32.0233 180.035 33.4533 180.771 35.1C181.551 36.7467 182.353 38.48 183.176 40.3C184.043 42.12 184.823 43.81 185.516 45.37C186.253 46.93 186.86 48.2517 187.336 49.335C187.813 50.375 188.051 50.96 188.051 51.09C188.051 51.3933 187.943 51.6317 187.726 51.805C187.51 51.935 187.271 52 187.011 52C186.578 52 186.275 51.805 186.101 51.415L176.221 29.9H164.781V50.7C164.781 51.0033 164.673 51.2417 164.456 51.415C164.24 51.5883 164.001 51.675 163.741 51.675C163.481 51.675 163.243 51.5883 163.026 51.415C162.853 51.1983 162.766 50.96 162.766 50.7V1.95H158.541V51.025C158.541 51.3283 158.433 51.5667 158.216 51.74C158 51.9133 157.761 52 157.501 52C157.241 52 157.003 51.9133 156.786 51.74C156.613 51.5233 156.526 51.285 156.526 51.025V0.974998C156.526 0.324999 156.851 -7.7486e-07 157.501 -7.7486e-07H176.351C177.998 -7.7486e-07 179.536 0.303333 180.966 0.909999C182.396 1.47333 183.631 2.275 184.671 3.315C185.755 4.355 186.6 5.59 187.206 7.02C187.813 8.40666 188.116 9.92333 188.116 11.57ZM186.101 11.57C186.101 10.2267 185.841 8.97 185.321 7.8C184.801 6.63 184.086 5.61166 183.176 4.745C182.31 3.87833 181.291 3.20666 180.121 2.73C178.951 2.21 177.695 1.95 176.351 1.95H164.781V21.515H176.351C177.695 21.515 178.951 21.255 180.121 20.735C181.335 20.215 182.375 19.5 183.241 18.59C184.151 17.68 184.845 16.64 185.321 15.47C185.841 14.2567 186.101 12.9567 186.101 11.57ZM239.264 51.025C239.264 51.285 239.156 51.5233 238.939 51.74C238.766 51.9133 238.549 52 238.289 52C237.769 52 237.444 51.7833 237.314 51.35L218.399 3.64L216.254 9.165C216.427 9.51166 216.796 10.3783 217.359 11.765C217.922 13.1517 218.616 14.8633 219.439 16.9C220.262 18.8933 221.151 21.125 222.104 23.595C223.057 26.0217 224.032 28.4917 225.029 31.005C226.026 33.5183 226.979 35.9667 227.889 38.35C228.842 40.7333 229.666 42.8567 230.359 44.72C231.096 46.5833 231.681 48.1 232.114 49.27C232.547 50.3967 232.764 50.9817 232.764 51.025C232.764 51.5017 232.547 51.805 232.114 51.935C232.027 51.935 231.962 51.9567 231.919 52C231.876 52 231.811 52 231.724 52C231.291 52 230.987 51.7833 230.814 51.35L215.214 11.96L200.069 51.35C199.896 51.7833 199.571 52 199.094 52C199.007 52 198.942 52 198.899 52C198.899 51.9567 198.856 51.935 198.769 51.935C198.336 51.805 198.119 51.48 198.119 50.96C198.119 50.9167 198.379 50.2017 198.899 48.815C199.419 47.4283 200.091 45.63 200.914 43.42C201.781 41.21 202.756 38.675 203.839 35.815C204.966 32.955 206.092 30.03 207.219 27.04C208.389 24.0067 209.537 21.0167 210.664 18.07C211.834 15.1233 212.874 12.4367 213.784 10.01C214.737 7.54 215.539 5.48167 216.189 3.835C216.839 2.145 217.251 1.06167 217.424 0.584999C217.597 0.194999 217.922 -7.7486e-07 218.399 -7.7486e-07C218.876 -7.7486e-07 219.179 0.194999 219.309 0.584999C219.482 1.06167 219.894 2.145 220.544 3.835C221.237 5.48167 222.061 7.54 223.014 10.01C223.967 12.4367 225.029 15.1233 226.199 18.07C227.412 21.0167 228.604 24.0067 229.774 27.04C230.987 30.03 232.157 32.955 233.284 35.815C234.454 38.675 235.472 41.2317 236.339 43.485C237.206 45.695 237.899 47.4933 238.419 48.88C238.982 50.2667 239.264 50.9817 239.264 51.025Z" fill="black"/>
</svg>
